<svg width="25" height="25" viewBox="0 0 25 25" fill="none" xmlns="http://www.w3.org/2000/svg">
<circle cx="12.5" cy="12.5" r="12.5" fill="#D4EBFA"/>
<path fill-rule="evenodd" clip-rule="evenodd" d="M15.9718 12.81C16.8436 13.4018 17.4545 14.2037 17.4545 15.2728V17.1819H20V15.2728C20 13.8855 17.7282 13.0646 15.9718 12.81Z" fill="#1A9DF4"/>
<path d="M11.0909 12.0909C12.4968 12.0909 13.6364 10.9513 13.6364 9.54546C13.6364 8.13964 12.4968 7 11.0909 7C9.68511 7 8.54547 8.13964 8.54547 9.54546C8.54547 10.9513 9.68511 12.0909 11.0909 12.0909Z" fill="#1A9DF4"/>
<path fill-rule="evenodd" clip-rule="evenodd" d="M14.9091 12.0909C16.3155 12.0909 17.4546 10.9518 17.4546 9.54546C17.4546 8.1391 16.3155 7 14.9091 7C14.61 7 14.33 7.06364 14.0628 7.15273C14.6104 7.82996 14.9091 8.67454 14.9091 9.54546C14.9091 10.4164 14.6104 11.261 14.0628 11.9382C14.33 12.0273 14.61 12.0909 14.9091 12.0909ZM11.0909 12.7273C9.39183 12.7273 6 13.58 6 15.2728V17.1819H16.1819V15.2728C16.1819 13.58 12.79 12.7273 11.0909 12.7273Z" fill="#1A9DF4"/>
</svg>
