<svg width="25" height="25" viewBox="0 0 25 25" fill="none" xmlns="http://www.w3.org/2000/svg">
<circle cx="12.5" cy="12.5" r="12.5" fill="#D4EBFA"/>
<path d="M19.4691 9.055L19.4764 9.04778L16.7709 6.36111L16 7.12667L17.5345 8.65056C16.8509 8.91056 16.3636 9.56056 16.3636 10.3333C16.3636 10.5704 16.4107 10.8052 16.502 11.0243C16.5934 11.2433 16.7273 11.4424 16.8962 11.6101C17.2371 11.9487 17.6996 12.1389 18.1818 12.1389C18.4436 12.1389 18.6836 12.0811 18.9091 11.9872V17.1944C18.9091 17.5917 18.5818 17.9167 18.1818 17.9167C17.7818 17.9167 17.4545 17.5917 17.4545 17.1944V13.9444C17.4545 13.15 16.8 12.5 16 12.5H15.2727V7.44444C15.2727 6.65 14.6182 6 13.8182 6H9.45455C8.65455 6 8 6.65 8 7.44444V19H15.2727V13.5833H16.3636V17.1944C16.3636 17.6733 16.5552 18.1326 16.8962 18.4712C17.2371 18.8098 17.6996 19 18.1818 19C18.664 19 19.1265 18.8098 19.4675 18.4712C19.8084 18.1326 20 17.6733 20 17.1944V10.3333C20 9.835 19.7964 9.38 19.4691 9.055ZM13.8182 11.0556H9.45455V7.44444H13.8182V11.0556ZM18.1818 11.0556C17.7818 11.0556 17.4545 10.7306 17.4545 10.3333C17.4545 9.93611 17.7818 9.61111 18.1818 9.61111C18.5818 9.61111 18.9091 9.93611 18.9091 10.3333C18.9091 10.7306 18.5818 11.0556 18.1818 11.0556Z" fill="#1A9DF4"/>
</svg>
