<svg width="25" height="25" viewBox="0 0 25 25" fill="none" xmlns="http://www.w3.org/2000/svg">
<circle cx="12.5" cy="12.5" r="12.5" fill="#D4EBFA"/>
<path d="M12.5 7.0946C8.95513 7.0946 6.08107 9.91555 6.08107 13.3981C6.07771 14.9359 6.65126 16.4222 7.69435 17.5788C7.72591 17.6125 7.75453 17.6463 7.78609 17.6772C8.03884 17.9054 8.11559 17.9054 8.31619 17.9054C8.51678 17.9054 8.64863 17.9054 8.84922 17.6746C9.71845 16.6746 11.0557 16.2422 12.5 16.2422C13.9442 16.2422 15.2834 16.6765 16.1507 17.6746C16.3513 17.9054 16.4802 17.9054 16.6838 17.9054C16.8873 17.9054 16.986 17.9054 17.2139 17.6772C17.2465 17.6448 17.274 17.6125 17.3056 17.5788C18.3487 16.4222 18.9222 14.9359 18.9189 13.3981C18.9189 9.91555 16.0448 7.0946 12.5 7.0946ZM12.072 8.75781H12.9279V10.421H12.072V8.75781ZM9.50449 13.7474H7.79278V12.9158H9.50449V13.7474ZM10.0792 11.5676L8.86901 10.3914L9.474 9.80354L10.6845 10.9795L10.0792 11.5676ZM13.1044 13.8358C13.0524 13.9058 12.9892 13.9672 12.9172 14.0177C12.7433 14.1356 12.5286 14.182 12.3196 14.147C12.1107 14.112 11.9244 13.9984 11.8011 13.8307C11.6779 13.6631 11.6277 13.455 11.6614 13.2516C11.6951 13.0482 11.81 12.8659 11.9811 12.7443L14.2117 11.6684L13.1044 13.8358ZM14.3155 10.9795L15.526 9.80354L16.1309 10.3914L14.9207 11.5676L14.3155 10.9795ZM17.2072 13.7474H15.4955V12.9158H17.2072V13.7474Z" fill="#1A9DF4"/>
</svg>
