<svg width="25" height="25" viewBox="0 0 25 25" fill="none" xmlns="http://www.w3.org/2000/svg">
<circle cx="12.5" cy="12.5" r="12.5" fill="#D4EBFA"/>
<path d="M16.7289 7.63125C16.6067 7.2625 16.2644 7 15.8611 7H9.13889C8.73556 7 8.39944 7.2625 8.27111 7.63125L7.06722 11.175C7.02444 11.3063 7 11.4438 7 11.5875V16.0625C7 16.5812 7.40944 17 7.91667 17C8.42389 17 8.83333 16.5812 8.83333 16.0625V15.75H16.1667V16.0625C16.1667 16.575 16.5761 17 17.0833 17C17.5844 17 18 16.5812 18 16.0625V11.5875C18 11.45 17.9756 11.3063 17.9328 11.175L16.7289 7.63125ZM9.13889 13.875C8.63167 13.875 8.22222 13.4562 8.22222 12.9375C8.22222 12.4188 8.63167 12 9.13889 12C9.64611 12 10.0556 12.4188 10.0556 12.9375C10.0556 13.4562 9.64611 13.875 9.13889 13.875ZM15.8611 13.875C15.3539 13.875 14.9444 13.4562 14.9444 12.9375C14.9444 12.4188 15.3539 12 15.8611 12C16.3683 12 16.7778 12.4188 16.7778 12.9375C16.7778 13.4562 16.3683 13.875 15.8611 13.875ZM8.22222 10.75L8.99833 8.3625C9.08389 8.1125 9.31611 7.9375 9.57889 7.9375H15.4211C15.6839 7.9375 15.9161 8.1125 16.0017 8.3625L16.7778 10.75H8.22222Z" fill="#1A9DF4"/>
</svg>
