<svg width="159" height="42" viewBox="0 0 159 42" fill="none" xmlns="http://www.w3.org/2000/svg">
<path d="M38.256 0.679993L31.2 41H21.064L23.64 26.44H12.72L10.2 41H0.0640259L7.17603 0.679993H17.256L14.232 17.704H25.152L28.176 0.679993H38.256Z" fill="#1A9DF4"/>
<path d="M50.5909 41.784C42.8256 41.784 38.9429 39.096 38.9429 33.72C38.9429 32.9733 39.0176 32.1707 39.1669 31.312L40.3429 24.368C40.9776 20.784 42.6202 18.04 45.2709 16.136C47.9589 14.1947 51.5056 13.224 55.9109 13.224C63.4149 13.224 67.1669 16.0613 67.1669 21.736C67.1669 22.5573 67.0922 23.4533 66.9429 24.424L66.2709 28.4H49.1909L48.9669 29.688C48.8922 30.136 48.8549 30.5467 48.8549 30.92C48.8549 32.9733 50.0682 34 52.4949 34C53.3909 34 54.1562 33.72 54.7909 33.16C55.4256 32.6 55.7989 31.9467 55.9109 31.2L65.2069 31.312C63.9749 38.2933 59.1029 41.784 50.5909 41.784ZM57.3109 24.984C57.4602 24.3493 57.5349 23.7707 57.5349 23.248C57.5349 22.688 57.2922 22.128 56.8069 21.568C56.3216 21.008 55.5376 20.728 54.4549 20.728C53.4096 20.728 52.4389 21.0827 51.5429 21.792C50.6842 22.5013 50.0869 23.5653 49.7509 24.984H57.3109Z" fill="#1A9DF4"/>
<path d="M97.3373 19.776C97.3373 21.0453 97.1133 22.2773 96.6653 23.472C96.2547 24.6667 95.844 25.544 95.4333 26.104L94.8173 26.888H86.3613C87.2947 26.0293 87.7613 24.9653 87.7613 23.696C87.7613 23.024 87.5373 22.4827 87.0893 22.072C86.6787 21.624 86.1 21.4 85.3533 21.4C84.084 21.4 82.9827 22.0347 82.0493 23.304L78.9133 41H69.3933L74.1533 14.064H83.0013L82.3293 17.816C84.4573 14.792 87.0333 13.28 90.0573 13.28C92.484 13.28 94.2947 13.8587 95.4893 15.016C96.7213 16.1733 97.3373 17.76 97.3373 19.776Z" fill="#1A9DF4"/>
<path d="M110.927 41.784C106.596 41.784 103.479 40.8133 101.575 38.872C100.156 37.4533 99.447 35.5493 99.447 33.16C99.447 32.376 99.5216 31.536 99.671 30.64L103.479 8.96799L113.727 4.71199L112.103 14.064H127.559L126.159 21.96H110.703L109.583 28.288C109.434 28.9973 109.359 29.632 109.359 30.192C109.359 32.544 110.479 33.72 112.719 33.72C113.914 33.72 114.903 33.216 115.687 32.208C116.508 31.2 117.068 29.856 117.367 28.176H126.663C125.095 37.248 119.85 41.784 110.927 41.784Z" fill="#1A9DF4"/>
<path d="M153.253 41H128.109L129.509 33.16L145.301 21.904H131.469L132.869 14.064H158.013L156.613 21.904L141.325 33.16H154.653L153.253 41Z" fill="#1A9DF4"/>
<path d="M50.5909 41.784C42.8256 41.784 38.9429 39.096 38.9429 33.72C38.9429 32.9733 39.0176 32.1707 39.1669 31.312L40.3429 24.368C40.9776 20.784 42.6202 18.04 45.2709 16.136C47.9589 14.1947 51.5056 13.224 55.9109 13.224C63.4149 13.224 67.1669 16.0613 67.1669 21.736C67.1669 22.5573 67.0922 23.4533 66.9429 24.424L66.2709 28.4H49.1909L48.9669 29.688C48.8922 30.136 48.8549 30.5467 48.8549 30.92C48.8549 32.9733 50.0682 34 52.4949 34C53.3909 34 54.1562 33.72 54.7909 33.16C55.4256 32.6 55.7989 31.9467 55.9109 31.2L65.2069 31.312C63.9749 38.2933 59.1029 41.784 50.5909 41.784ZM57.3109 24.984C57.4602 24.3493 57.5349 23.7707 57.5349 23.248C57.5349 22.688 57.2922 22.128 56.8069 21.568C56.3216 21.008 55.5376 20.728 54.4549 20.728C53.4096 20.728 52.4389 21.0827 51.5429 21.792C50.6842 22.5013 50.0869 23.5653 49.7509 24.984H57.3109Z" fill="#4A4A49"/>
<path d="M97.3373 19.776C97.3373 21.0453 97.1133 22.2773 96.6653 23.472C96.2547 24.6667 95.844 25.544 95.4333 26.104L94.8173 26.888H86.3613C87.2947 26.0293 87.7613 24.9653 87.7613 23.696C87.7613 23.024 87.5373 22.4827 87.0893 22.072C86.6787 21.624 86.1 21.4 85.3533 21.4C84.084 21.4 82.9827 22.0347 82.0493 23.304L78.9133 41H69.3933L74.1533 14.064H83.0013L82.3293 17.816C84.4573 14.792 87.0333 13.28 90.0573 13.28C92.484 13.28 94.2947 13.8587 95.4893 15.016C96.7213 16.1733 97.3373 17.76 97.3373 19.776Z" fill="#4A4A49"/>
<path d="M110.927 41.784C106.596 41.784 103.479 40.8133 101.575 38.872C100.156 37.4533 99.447 35.5493 99.447 33.16C99.447 32.376 99.5216 31.536 99.671 30.64L103.479 8.96799L113.727 4.71199L112.103 14.064H127.559L126.159 21.96H110.703L109.583 28.288C109.434 28.9973 109.359 29.632 109.359 30.192C109.359 32.544 110.479 33.72 112.719 33.72C113.914 33.72 114.903 33.216 115.687 32.208C116.508 31.2 117.068 29.856 117.367 28.176H126.663C125.095 37.248 119.85 41.784 110.927 41.784Z" fill="#4A4A49"/>
<path d="M153.253 41H128.109L129.509 33.16L145.301 21.904H131.469L132.869 14.064H158.013L156.613 21.904L141.325 33.16H154.653L153.253 41Z" fill="#4A4A49"/>
</svg>
