<?xml version="1.0"?>
<svg width="50" height="50" viewBox="0 0 50 50" xmlns="http://www.w3.org/2000/svg" xmlns:svg="http://www.w3.org/2000/svg" xmlns:se="http://svg-edit.googlecode.com" data-name="Layer 1">
 <title>UTS Logo</title>
 <g class="layer" fill="white">
  <title>Layer 1</title>
  <rect height="4" id="svg_1" transform="rotate(-45 -7.82 27.6567)" width="4" x="18" y="48"/>
  <path d="m36,25.026667l2.17,2.14l2.83,-2.81l-2.89,-2.89a3,3 0 0 0 -4.2,0l-9.91,9.89l2.85,2.81l9.15,-9.14z" id="svg_2"/>
  <path d="m35.34,37.016667l-2.83,-2.85l-2.15,2.15l-2.16,-2.15l-2.83,2.83l2.88,2.88a3,3 0 0 0 4.2,0l2.89,-2.86z" id="svg_3"/>
  <path d="m36,41.996667l-2.15,-2.15l-2.85,2.82l2.88,2.88a3,3 0 0 0 4.2,0l2.92,-2.88l-2.83,-2.83l-2.17,2.16z" id="svg_4"/>
  <path d="m41.67,36.336667l-2.16,-2.17l-2.83,2.83l2.88,2.88a3,3 0 0 0 4.2,0l2.88,-2.88l-2.82,-2.83l-2.15,2.17z" id="svg_5"/>
  <rect height="4" id="svg_6" transform="rotate(-45 -7.41 42.6567)" width="4" x="36" y="70"/>
  <path d="m36,30.686667l-2.15,-2.15l-2.85,2.82l2.88,2.88a3,3 0 0 0 4.2,0l9.92,-9.88l-2.83,-2.83l-9.17,9.16z" id="svg_7"/>
  <rect height="6" id="svg_8" transform="rotate(-44.99 7.65 28.8167)" width="6" x="40" y="30"/>
  <path d="m31.31,14.836667l2.69,0l0,5.33a3.94,3.94 0 0 1 4,0l0,-5.33l2.71,0l1.77,1.77l3.77,-3.77l-3.76,-3.77l-1.77,1.78l-9.41,0l-1.78,-1.78l-3.77,3.77l3.77,3.77l1.78,-1.77z" id="svg_9"/>
  <polygon id="svg_10" points="2.309999942779541,18.356658935546875 2.309999942779541,29.36665916442871 5.610000133514404,29.36665916442871 5.610000133514404,25.72665786743164 19.399999618530273,25.72665786743164 19.399999618530273,22.00665855407715 5.610000133514404,22.00665855407715 5.610000133514404,18.356658935546875 2.309999942779541,18.356658935546875 "/>
  <path d="m14.17,32.656667l-11.86,0l0,3.72l11.81,0a2.09,2.09 0 1 1 0,4.16l-11.81,0l0,3.72l11.86,0c3.38,0 5.49,-2.34 5.49,-5.8s-2.11,-5.8 -5.49,-5.8" id="svg_11"/>
  <path d="m14.3,4.556667c-3.15,0 -4.24,2 -5,4.16l-0.85,2.14a1.79,1.79 0 0 1 -1.69,1.38a1.66,1.66 0 0 1 -1.64,-1.87a1.86,1.86 0 0 1 2,-2l0.47,0l0,-3.44l-0.39,0c-3.2,0 -5.2,2.18 -5.2,5.44c0,3.41 2.39,5.38 5,5.38s4,-1.3 4.92,-3.77l0.91,-2.39c0.42,-1.07 1,-1.48 1.85,-1.48c1.2,0 1.9,0.78 1.9,2.19s-0.65,2.26 -2,2.26l-0.62,0l0,3.51l0.6,0c3.18,0 5.15,-2.45 5.15,-5.78c0,-3.64 -2.21,-5.73 -5.36,-5.73" id="svg_12"/>
 </g>
</svg>